P2
# CREATOR: The GIMP's PNM Filter Version 1.0
127 127
255
3
1
4
1
4
3
2
2
3
5
5
8
6
4
5
4
4
4
3
3
4
3
3
2
3
3
3
4
3
3
4
4
5
2
4
1
3
3
3
4
4
4
6
3
6
3
3
2
4
4
1
2
1
4
4
2
4
1
5
2
3
5
3
4
5
4
5
6
4
4
6
5
4
5
2
3
4
2
4
1
3
3
1
3
1
3
3
3
5
1
3
2
4
4
3
3
1
4
4
3
4
3
3
5
3
6
1
4
2
3
3
2
4
3
4
5
2
3
2
5
3
1
3
2
4
4
6
3
1
4
1
4
3
1
3
2
4
6
6
5
4
5
3
2
4
2
4
2
3
5
4
5
2
4
3
2
4
1
6
3
4
4
2
3
2
4
4
4
4
2
2
4
1
3
1
3
3
1
3
1
3
3
2
2
2
6
8
8
7
6
8
7
8
8
6
10
7
8
8
7
5
4
5
4
3
3
1
2
3
2
3
0
3
1
3
4
1
2
1
5
4
1
5
3
4
3
1
3
1
2
4
1
5
2
3
4
5
4
2
3
2
3
4
2
6
3
3
4
1
4
1
4
2
8
2
1
1
0
1
2
1
3
2
4
6
4
4
1
4
2
4
5
3
4
3
3
4
2
4
4
3
4
4
3
1
3
4
3
4
0
3
5
2
4
3
4
5
4
5
1
2
1
3
1
1
3
1
4
5
5
6
6
10
21
33
44
47
52
55
65
69
70
66
56
48
43
35
27
18
12
9
5
6
4
4
2
2
2
1
3
2
2
2
1
3
1
3
3
2
4
3
3
4
2
3
3
4
3
2
4
3
3
3
2
5
1
5
3
3
4
1
4
2
4
4
3
2
1
4
5
7
3
2
2
1
2
3
2
2
1
4
5
4
3
2
3
4
3
3
2
4
4
3
4
2
4
4
3
4
3
3
3
3
4
2
4
2
4
4
3
2
2
3
2
1
3
2
3
1
2
3
1
4
5
6
12
19
31
49
69
85
88
89
89
89
89
90
93
96
96
96
96
98
97
91
84
72
58
39
28
21
15
9
6
5
3
4
4
2
3
1
2
2
4
3
3
3
2
3
4
3
2
4
4
5
3
4
2
3
2
2
3
3
3
3
2
2
2
3
3
3
4
2
4
0
2
3
7
1
0
3
1
3
2
1
3
0
4
4
2
4
3
5
6
3
4
1
3
3
3
4
2
4
2
3
3
2
5
4
5
3
3
4
5
4
3
1
4
3
5
2
3
3
1
1
1
3
4
4
7
10
30
68
94
98
95
99
104
113
122
135
145
147
157
154
157
154
141
137
130
124
122
112
112
108
104
99
94
81
60
39
20
12
6
7
2
3
1
1
1
2
2
1
3
1
4
4
6
5
2
4
3
2
4
2
3
4
4
6
3
3
3
3
4
3
4
1
4
4
2
4
1
4
4
6
2
2
2
1
3
3
1
3
1
3
4
2
4
3
3
3
2
4
4
2
1
4
3
3
4
4
2
3
4
4
3
5
5
4
4
4
4
3
4
3
2
2
2
2
2
2
4
2
2
6
8
28
65
99
99
114
144
175
187
194
205
202
197
194
197
199
194
198
201
201
203
200
200
196
187
179
168
159
151
140
125
115
106
95
77
42
22
10
6
2
3
2
3
1
1
2
1
2
3
1
3
4
3
4
3
4
4
5
3
2
4
3
5
4
3
5
2
2
2
4
2
1
2
1
3
3
6
3
1
3
2
4
2
1
4
1
6
5
3
5
1
5
4
2
4
1
5
4
3
4
2
3
2
3
4
5
6
2
6
5
2
5
3
4
4
3
3
2
4
2
3
3
2
4
3
9
18
56
97
104
120
151
190
229
246
237
222
204
185
172
167
153
144
141
143
154
157
158
154
162
183
206
222
220
219
216
206
192
160
135
117
110
106
86
47
19
10
7
3
3
4
1
4
1
2
2
1
5
4
6
7
4
6
4
5
4
5
4
4
6
5
4
4
3
5
2
5
4
1
3
2
2
4
6
2
2
2
1
3
2
3
3
1
4
4
2
4
2
3
3
4
5
2
3
4
4
3
3
4
3
4
3
3
4
4
4
2
4
4
3
4
2
1
3
1
3
1
3
3
2
5
11
23
76
106
108
135
180
214
235
235
221
201
174
156
140
124
112
107
102
107
109
112
116
112
113
115
121
138
155
167
172
177
184
189
189
191
174
147
115
106
100
75
38
15
10
6
4
3
3
1
3
1
2
4
1
5
4
6
4
4
5
5
3
4
3
3
5
3
5
4
3
2
1
2
2
3
1
4
4
7
3
1
2
1
2
4
4
3
1
4
5
2
2
2
2
3
2
2
2
2
3
2
4
1
3
2
3
4
3
3
4
3
3
2
3
1
2
2
2
2
1
2
1
2
3
4
11
40
93
99
126
164
200
195
181
166
152
138
119
111
100
93
85
74
73
71
73
76
73
74
79
81
81
87
95
106
114
116
119
128
136
153
178
203
221
208
160
125
97
95
78
37
14
7
2
2
1
3
2
2
2
2
4
4
4
4
5
3
6
4
4
4
4
4
2
4
2
4
2
3
3
1
3
1
1
3
6
2
2
3
1
4
5
4
3
1
4
5
1
3
2
7
5
3
4
4
4
5
4
4
2
3
3
4
5
2
3
1
3
3
2
2
1
3
2
1
3
1
3
2
2
3
9
43
91
94
132
179
202
179
155
142
126
118
103
92
84
72
62
54
52
48
46
46
48
47
48
51
53
53
61
66
76
85
93
97
105
109
118
124
148
174
213
228
195
142
98
95
95
57
15
9
4
1
3
3
1
4
1
5
5
3
5
6
5
3
6
4
3
4
3
4
5
2
4
3
2
2
1
1
1
5
2
9
3
1
2
1
3
5
3
4
2
4
2
3
4
1
4
4
3
3
3
2
2
3
3
3
4
4
3
5
4
4
4
4
2
1
3
1
2
2
2
2
1
2
1
2
6
42
92
84
124
184
205
181
159
132
116
104
95
84
68
55
45
39
35
33
30
30
31
29
32
31
35
39
38
40
44
49
58
65
74
84
91
97
108
124
135
151
180
216
220
157
112
91
98
62
13
6
3
2
2
1
2
2
3
2
5
3
4
4
5
3
5
3
5
4
5
7
3
4
3
3
3
1
3
1
3
4
6
3
1
3
1
5
5
3
5
2
4
2
4
5
1
4
4
3
5
3
6
3
3
5
4
6
2
3
6
2
4
2
3
4
2
3
1
4
3
2
3
2
3
3
6
36
80
83
127
181
198
179
160
134
116
98
83
71
56
47
38
29
27
24
21
20
19
21
18
18
20
24
22
22
28
29
35
39
44
51
54
66
77
85
97
107
124
144
168
198
214
182
143
109
99
74
26
6
4
3
1
3
0
4
5
2
5
4
6
5
7
6
4
4
4
6
5
7
6
3
3
1
1
3
2
3
3
6
2
2
2
2
2
4
1
3
3
4
4
2
4
1
4
3
2
3
2
4
2
2
6
5
3
4
4
5
4
3
4
5
4
1
2
1
2
2
1
2
3
5
6
26
83
72
123
189
197
170
149
131
110
91
72
57
45
34
28
21
20
18
15
17
15
13
14
12
14
14
14
18
16
18
19
19
23
27
29
36
46
55
64
74
82
93
108
127
149
183
206
203
171
119
98
82
25
6
6
2
4
2
2
1
2
3
2
4
5
4
3
3
4
7
4
6
5
4
1
3
3
1
3
1
2
3
8
4
1
3
2
4
4
2
3
2
3
3
5
4
1
4
3
5
3
2
3
2
4
4
4
4
3
4
4
4
2
2
4
2
2
3
1
4
2
2
2
2
6
16
69
83
105
190
198
165
141
120
104
86
63
48
33
28
19
16
13
12
12
10
14
11
10
13
8
8
11
9
13
11
12
12
12
15
14
19
20
26
36
42
53
64
76
88
100
117
143
174
198
206
179
122
99
82
19
7
2
4
2
3
1
2
3
4
4
4
3
5
4
5
6
4
6
4
4
2
2
2
1
4
1
2
3
6
2
2
2
1
6
4
1
3
2
5
3
6
5
3
4
3
3
6
1
4
4
3
4
3
5
3
3
4
2
4
4
4
2
1
2
1
2
3
2
3
3
9
46
89
90
172
204
165
133
116
93
77
58
42
30
20
15
14
10
10
8
9
8
8
12
10
10
8
8
6
9
8
8
8
10
8
12
12
11
13
16
20
26
35
43
57
69
79
95
113
133
164
190
204
177
121
94
70
20
8
5
1
3
3
1
3
1
4
4
3
4
4
4
5
4
6
6
4
4
1
3
1
1
1
1
4
5
3
1
3
2
4
3
4
2
2
4
6
3
3
4
1
2
4
4
1
4
4
2
5
3
4
4
2
4
3
4
3
4
3
2
2
2
2
1
3
4
5
26
83
84
151
209
165
130
109
90
69
53
36
26
19
12
11
7
8
4
7
9
10
8
7
6
8
5
7
7
5
8
6
6
4
7
6
8
7
7
11
13
15
19
24
38
47
58
69
92
106
127
151
184
208
182
115
93
70
18
8
5
1
1
1
1
2
3
4
3
5
3
4
5
6
4
4
4
1
3
2
2
3
1
1
1
4
3
2
4
2
4
3
1
3
2
4
4
4
4
2
4
3
2
4
2
4
2
4
5
3
4
3
5
4
3
4
2
4
2
2
2
0
3
4
4
10
10
64
86
130
218
169
127
106
88
67
48
37
25
17
11
10
10
5
7
7
7
7
6
8
6
6
7
5
6
5
6
6
4
5
5
7
6
6
6
5
8
10
7
13
14
17
23
37
49
67
87
105
122
146
184
209
178
95
95
62
14
5
3
2
2
4
3
3
5
3
5
3
4
3
6
8
4
4
1
3
2
1
2
0
3
3
7
2
2
3
3
4
5
4
3
3
4
5
3
5
4
4
4
2
4
2
4
3
3
3
2
3
2
5
5
2
4
4
2
1
2
2
1
2
3
3
9
22
87
99
194
187
142
114
89
68
49
38
27
19
13
10
7
9
5
7
6
6
6
5
6
5
5
6
3
5
4
6
7
4
5
4
5
5
4
4
3
4
4
5
6
9
11
15
21
32
47
66
87
107
127
154
192
206
147
91
95
37
8
5
3
1
2
0
3
4
3
5
4
5
4
4
5
5
3
2
2
3
1
4
1
3
4
6
3
1
6
3
5
5
2
4
3
5
4
4
4
2
4
4
4
3
2
3
3
2
5
1
4
3
4
3
4
5
3
3
2
1
3
1
2
4
6
11
60
91
155
201
152
120
99
75
59
40
27
18
11
11
8
7
8
5
6
5
6
6
4
7
6
6
5
4
4
3
3
6
4
5
4
4
3
4
4
1
4
4
6
6
5
9
9
15
20
31
45
66
92
112
132
166
203
204
131
88
76
13
5
4
2
3
1
3
4
4
3
5
4
4
5
5
5
4
1
3
4
1
2
2
3
4
5
3
1
4
3
4
3
3
3
0
4
4
2
4
1
4
3
2
5
2
4
3
3
4
1
3
1
3
3
2
3
2
3
1
2
3
0
3
3
6
29
90
111
193
166
135
104
81
62
50
31
17
13
9
9
7
5
5
5
8
5
6
5
5
4
4
3
6
4
3
2
2
3
1
4
3
3
3
2
4
3
4
3
2
4
3
5
5
9
16
19
28
41
63
92
107
131
169
212
201
110
88
47
10
4
2
2
0
4
4
5
3
1
3
4
5
6
5
3
0
2
2
2
3
1
3
4
3
1
2
3
2
3
4
4
2
1
3
5
2
5
1
4
3
2
3
2
2
2
3
4
1
3
2
2
5
4
4
1
4
3
1
3
1
2
3
8
59
94
154
181
140
118
96
69
51
39
22
13
9
6
6
7
5
5
7
5
7
3
6
5
5
4
4
4
2
4
4
3
5
3
2
3
4
3
1
3
2
3
3
2
4
3
4
5
7
11
13
18
28
40
66
85
109
137
184
216
186
98
82
21
5
2
2
1
1
3
3
4
2
4
5
6
5
3
3
2
4
3
2
2
1
2
3
3
3
1
3
1
3
4
3
4
1
4
4
2
4
1
4
2
3
3
1
4
3
2
2
1
3
2
3
4
2
3
4
3
3
1
2
0
3
5
21
91
89
185
158
129
107
85
57
42
31
19
11
9
5
8
6
6
9
3
9
7
5
6
4
5
4
5
6
5
5
5
6
7
6
5
3
5
4
2
5
1
4
5
3
4
3
2
3
6
7
10
15
18
28
47
69
96
120
159
199
220
147
93
49
8
5
4
1
3
2
2
5
3
4
5
6
6
3
4
2
2
2
2
3
1
2
3
5
2
2
3
3
3
3
2
4
3
4
4
3
4
3
3
4
2
2
1
4
4
2
4
1
3
1
3
2
2
3
2
3
2
3
3
1
4
6
44
98
109
184
141
119
96
70
49
34
25
15
9
6
5
8
7
6
6
5
5
7
6
6
4
5
7
4
5
4
5
5
5
6
5
7
3
4
4
5
3
3
5
2
0
3
2
3
5
4
6
10
12
16
23
33
51
81
108
143
173
214
190
98
83
16
2
3
1
3
2
3
5
4
5
6
6
5
4
4
4
3
5
2
3
1
3
3
4
3
1
3
1
4
5
2
3
1
6
5
2
3
2
2
3
3
5
3
3
2
2
3
1
3
1
3
2
2
3
1
4
3
1
3
1
5
11
65
94
147
167
128
107
82
58
42
28
20
12
5
7
5
5
5
4
7
5
7
6
6
9
5
5
6
6
6
5
7
5
7
9
6
6
6
6
6
6
5
4
4
5
2
4
1
5
3
5
4
7
9
12
17
26
42
63
89
128
151
184
219
140
95
46
8
4
1
4
2
2
4
4
5
6
5
7
2
4
4
5
4
1
3
1
3
2
5
3
1
3
1
4
5
3
4
1
4
4
2
6
3
2
2
3
4
1
3
2
2
3
2
2
1
3
3
2
4
4
2
2
2
3
3
6
16
86
97
179
148
122
98
73
51
37
22
16
8
7
5
4
6
5
6
4
4
6
5
5
7
5
6
6
7
8
7
8
8
9
9
7
6
6
8
9
8
7
5
5
5
2
2
3
4
3
3
5
5
7
8
12
21
29
43
69
104
136
162
207
196
99
88
16
6
1
3
2
3
5
5
4
5
4
3
3
5
3
3
3
1
4
0
2
3
5
1
1
2
1
2
2
2
4
3
3
4
2
2
3
2
2
3
4
1
3
2
1
2
1
3
1
3
3
1
4
1
2
2
1
2
2
5
32
89
121
167
145
117
90
62
42
29
20
15
9
4
7
6
6
4
3
6
4
5
7
6
6
7
6
10
9
12
8
12
23
67
58
68
40
25
9
9
6
6
5
4
4
4
3
2
4
5
3
5
4
5
6
11
15
24
36
55
91
117
145
183
222
131
98
39
6
2
3
2
1
5
5
2
4
2
4
2
3
4
5
4
1
2
1
1
2
4
3
1
2
1
3
3
3
4
2
4
2
4
6
1
4
6
3
4
1
3
2
2
3
1
1
1
2
2
2
3
1
3
4
1
4
3
7
55
85
150
166
141
104
72
46
31
24
15
11
9
9
7
5
5
6
4
3
4
9
5
8
5
7
8
8
8
15
85
131
183
203
186
179
172
201
122
58
8
8
3
5
4
1
4
4
2
2
3
4
3
4
6
8
13
22
31
43
76
100
129
168
218
169
96
65
6
1
2
2
2
3
3
5
4
5
4
2
4
4
7
4
1
3
0
4
3
6
2
2
3
3
3
2
3
5
2
5
3
2
5
1
4
5
4
4
1
1
1
3
1
1
3
1
3
3
2
2
1
3
2
1
3
3
10
74
93
175
161
125
90
57
41
30
19
14
13
7
8
6
5
6
4
4
4
4
7
6
7
8
6
9
8
25
144
206
195
169
169
191
176
172
187
178
183
99
20
6
4
4
4
3
2
5
3
3
4
1
3
4
6
10
14
23
36
57
84
112
149
205
206
101
84
10
5
3
3
1
2
2
4
4
4
5
3
4
5
4
4
2
2
1
2
2
7
3
1
4
1
3
3
1
4
3
5
5
3
5
2
5
4
3
4
1
4
3
3
3
1
3
1
5
4
2
4
1
4
3
1
4
2
23
92
130
184
144
112
77
53
44
34
23
15
14
8
9
9
4
6
5
4
5
4
8
8
7
8
6
9
7
95
205
165
167
169
169
164
157
155
177
172
182
197
130
8
5
6
5
4
1
5
2
4
5
2
6
5
5
9
11
18
28
49
70
95
138
189
224
114
95
17
4
3
2
3
4
2
4
4
6
5
4
5
5
4
3
1
3
1
4
3
6
2
1
2
1
3
2
1
4
2
4
4
2
3
1
2
2
2
2
1
3
1
2
3
2
3
1
3
2
1
2
1
1
3
2
3
6
39
95
168
176
141
102
67
53
45
35
23
13
10
8
8
9
4
6
5
4
5
4
7
7
6
6
6
7
7
134
200
171
169
155
123
89
86
144
182
181
185
210
193
12
5
4
4
5
3
3
3
3
5
3
2
2
7
8
8
14
23
42
61
85
124
176
230
132
97
28
7
4
4
2
3
0
2
3
3
4
3
4
4
7
4
2
3
1
4
3
4
3
2
3
2
2
3
1
1
1
4
2
2
4
1
2
1
2
3
2
2
2
2
4
1
3
1
4
3
1
3
1
1
1
1
3
7
57
99
188
165
135
99
70
58
49
39
29
17
11
9
6
9
7
6
3
5
5
5
6
6
7
8
9
8
7
155
192
152
139
128
128
143
160
103
175
196
197
208
198
42
6
6
4
5
4
2
2
2
4
3
2
2
5
7
7
11
18
37
54
76
115
162
227
154
93
39
9
3
3
2
2
1
4
5
3
5
3
4
4
5
3
1
3
1
3
2
5
2
0
1
0
3
2
1
3
1
4
3
5
5
1
3
3
2
1
1
3
2
2
2
1
3
0
2
1
1
2
1
5
4
2
5
14
84
110
190
163
128
96
73
63
54
43
31
16
10
10
9
6
8
6
6
4
5
5
7
7
5
6
6
10
8
77
187
175
142
142
174
200
196
163
176
181
185
198
228
103
8
5
3
4
2
5
2
2
3
2
4
5
4
5
7
13
15
33
54
71
104
153
216
180
98
53
8
7
5
2
3
2
2
3
4
7
4
4
4
4
2
2
2
1
1
3
5
2
2
2
4
2
2
2
2
1
1
5
1
2
1
2
1
2
3
1
2
2
3
2
2
2
1
3
2
2
4
2
3
1
2
7
38
100
135
186
154
117
93
78
68
60
48
33
20
13
10
8
7
7
5
6
6
5
7
5
6
7
8
7
6
8
7
45
80
80
106
111
179
183
135
118
146
184
198
230
95
6
6
4
5
5
4
4
1
4
2
4
2
2
5
6
11
14
31
49
67
96
146
202
195
104
64
10
5
3
2
2
2
2
2
3
4
5
3
5
7
3
2
3
1
4
2
5
4
1
4
1
3
3
2
3
1
4
3
1
4
1
3
3
2
3
0
4
1
2
3
1
3
1
4
3
2
4
1
4
4
3
18
80
95
174
180
141
114
97
82
74
64
52
41
22
19
11
11
9
9
8
8
6
9
5
7
9
5
7
7
9
8
7
8
8
12
13
64
192
191
182
182
166
174
208
222
114
9
5
6
6
5
5
6
4
5
4
4
2
3
4
10
10
14
29
42
59
91
142
193
203
113
76
15
9
6
2
4
1
3
4
5
6
4
4
5
7
5
2
4
1
3
3
6
4
1
4
2
5
3
1
3
1
2
4
2
2
1
4
2
2
2
1
2
2
3
2
1
4
1
3
2
1
2
1
4
5
7
54
110
121
208
174
137
115
103
90
78
66
59
46
30
20
14
12
10
12
10
9
7
6
6
8
7
6
6
6
7
7
10
9
9
9
13
57
192
193
173
193
201
186
205
161
51
8
6
5
5
5
5
4
4
5
1
4
4
2
5
6
11
17
25
41
62
88
136
185
214
121
79
13
7
5
2
2
1
3
4
3
3
1
4
4
7
5
1
1
1
2
4
5
2
1
4
2
4
5
3
3
1
4
2
1
3
1
2
3
2
4
1
2
1
2
2
1
2
1
3
3
2
3
1
4
7
38
109
114
200
203
159
137
119
110
94
82
72
69
58
40
31
19
15
13
9
10
8
10
7
7
8
7
5
6
6
7
6
6
7
7
9
9
13
115
184
176
182
201
202
89
25
12
9
8
3
5
6
3
4
3
4
2
4
3
4
6
7
11
15
23
41
60
82
126
180
216
121
75
12
8
4
2
3
1
2
3
2
4
3
6
2
7
5
2
3
1
3
2
5
3
1
2
2
4
3
2
2
1
1
3
1
2
1
3
2
2
2
1
1
1
2
4
1
3
1
2
1
1
4
3
11
25
90
122
196
232
181
142
142
125
112
99
88
81
75
67
53
40
28
19
19
10
11
12
8
9
7
9
7
8
6
5
8
7
7
6
7
9
10
10
69
187
151
92
116
112
19
13
10
8
6
5
6
5
7
3
4
2
3
3
3
3
6
8
12
14
24
38
59
83
125
181
212
119
76
10
8
3
2
2
1
4
2
3
4
1
4
5
4
4
1
2
0
2
4
5
2
1
2
2
3
4
5
4
2
3
1
0
3
0
2
2
1
1
1
2
1
2
2
2
2
2
1
3
4
5
5
28
94
112
180
235
212
161
137
148
134
116
105
100
91
81
73
67
57
39
32
25
20
16
12
12
9
10
9
9
8
9
5
6
5
6
7
6
8
7
4
58
171
16
18
12
12
15
9
10
9
9
4
5
7
6
5
3
5
2
4
5
4
5
7
11
15
22
39
58
84
124
180
203
109
63
11
4
4
2
2
2
4
4
3
5
3
2
3
7
3
3
4
1
2
1
4
4
1
4
3
6
4
3
4
1
3
3
1
3
1
3
2
2
3
1
4
2
3
3
1
4
2
4
5
3
10
22
105
113
145
226
234
201
160
138
154
141
134
128
120
110
101
92
84
74
59
47
44
35
30
25
18
17
12
12
9
10
10
6
7
6
7
8
7
6
7
8
53
138
11
12
13
13
9
13
8
8
7
6
8
7
8
6
5
5
2
4
4
4
6
8
11
14
29
42
61
83
128
189
188
103
52
7
5
3
2
4
3
4
4
6
4
1
4
3
7
4
1
3
1
3
4
6
3
1
3
4
2
5
4
4
1
4
6
5
4
2
2
2
2
2
2
2
2
3
3
1
2
1
2
4
5
11
87
117
119
199
233
228
212
185
158
156
161
161
161
159
157
147
135
116
102
87
77
69
57
53
44
31
26
19
17
13
10
10
6
7
7
6
7
6
8
7
8
58
98
10
14
9
11
9
10
9
7
9
8
8
6
6
6
3
5
3
3
3
5
5
8
11
17
24
40
64
89
134
208
162
98
37
8
4
3
2
3
3
5
4
5
5
3
4
4
5
5
1
2
1
3
2
6
3
1
3
2
2
2
4
4
4
4
6
4
5
3
4
3
2
2
1
4
3
4
4
1
4
1
3
3
5
26
116
118
162
241
249
237
225
212
198
179
167
180
193
199
202
201
196
179
154
126
101
92
79
75
64
47
39
27
20
15
13
10
8
7
7
5
6
4
9
7
5
64
77
10
8
9
10
9
8
7
6
10
7
7
7
5
4
5
4
4
3
3
6
5
8
10
13
27
43
71
97
147
218
136
97
21
8
5
3
2
2
2
3
4
5
6
3
5
5
6
7
3
4
0
3
4
4
2
1
3
3
5
3
3
3
1
4
3
5
5
4
4
5
3
5
2
4
2
6
4
3
1
1
1
4
7
39
118
125
214
244
238
223
198
174
157
142
137
147
157
172
186
202
220
218
206
177
145
119
103
85
74
66
49
34
24
19
12
11
8
7
7
7
7
7
7
6
6
68
54
11
8
9
11
8
9
8
8
7
6
7
6
4
4
3
5
3
5
4
6
7
8
12
17
32
49
74
108
161
218
115
96
15
9
3
2
2
3
4
3
2
4
4
4
5
5
9
5
1
1
1
2
3
6
3
1
2
2
4
4
2
3
3
3
4
2
2
2
4
5
2
6
2
4
3
5
5
4
3
1
1
3
7
42
108
85
199
228
230
228
227
221
213
207
195
175
160
146
143
164
194
213
220
216
193
160
125
106
92
73
63
46
31
22
13
11
13
7
9
5
7
7
7
8
8
71
50
7
9
9
8
7
5
8
6
8
5
7
5
4
4
4
5
5
5
5
7
8
7
12
18
37
55
82
120
177
209
106
87
8
7
2
2
1
2
2
4
4
4
4
2
4
4
7
4
2
3
1
3
4
4
2
1
5
3
5
3
1
2
1
6
4
3
4
1
4
4
2
3
2
4
5
6
8
4
2
1
3
4
4
29
99
102
194
223
213
191
173
166
173
190
204
219
213
188
160
139
163
197
213
225
224
205
166
132
109
90
73
52
38
29
17
16
13
12
10
10
8
7
8
9
7
79
51
8
7
9
9
8
9
8
9
7
7
6
4
4
5
6
7
6
6
8
8
9
10
13
19
41
66
95
139
193
175
105
67
9
8
2
3
2
3
1
6
2
3
4
4
5
5
6
6
1
3
1
2
3
5
2
3
3
4
3
3
3
4
4
2
2
2
3
1
3
2
1
3
4
2
4
3
4
2
4
1
3
4
4
21
114
180
200
155
107
72
57
59
67
78
96
142
189
215
201
143
118
152
196
224
230
227
202
152
124
104
86
61
47
32
23
17
14
13
12
10
12
8
10
8
7
75
53
9
7
10
8
6
6
7
7
6
6
7
4
5
5
4
5
5
6
7
7
10
14
16
25
46
72
105
153
215
142
107
44
7
6
3
2
2
3
3
4
4
3
4
3
5
2
6
6
1
3
1
4
3
8
3
2
4
3
5
3
2
5
2
3
1
1
3
1
3
3
3
2
1
4
4
3
5
2
2
1
3
3
8
49
180
168
80
43
34
23
24
26
29
43
48
64
93
143
201
189
130
102
161
219
227
234
228
189
149
125
102
77
59
40
30
23
15
17
13
13
11
8
10
6
7
72
55
10
8
8
9
6
8
6
6
3
5
6
4
4
4
4
7
5
9
8
9
12
16
20
32
51
80
108
161
216
119
104
25
8
4
3
1
1
3
1
4
3
4
4
3
4
4
6
5
2
4
1
5
4
9
4
1
4
3
3
3
3
3
1
3
3
2
2
1
3
1
2
4
1
4
3
3
4
1
3
1
3
4
16
110
172
73
33
23
19
17
16
18
17
20
21
27
37
62
134
204
180
102
102
201
221
232
237
217
176
141
118
91
73
53
36
28
23
17
18
13
14
12
11
9
7
67
65
11
5
6
8
7
5
6
5
5
5
5
4
5
5
5
6
6
6
9
9
15
18
26
35
61
87
117
165
211
101
88
14
6
2
3
2
2
3
1
4
3
3
3
3
4
4
6
5
2
4
1
1
5
11
1
4
4
2
3
3
1
2
1
1
1
1
3
1
2
3
2
2
0
3
3
3
3
1
3
1
2
9
68
157
72
32
24
15
14
9
10
10
11
13
12
16
20
34
64
143
201
141
80
144
200
210
225
228
203
169
135
104
88
72
53
42
34
24
21
15
15
16
11
11
9
63
76
11
8
7
7
8
4
7
4
6
5
5
4
4
5
4
7
6
9
8
12
17
23
32
43
67
91
126
177
176
109
59
7
4
2
3
2
2
3
3
1
3
2
3
3
4
4
5
4
3
3
2
3
7
12
4
2
3
1
3
2
0
3
2
4
3
1
2
1
4
2
1
3
0
4
3
2
3
1
3
2
7
25
142
96
20
21
16
12
10
6
8
7
9
12
12
17
21
33
52
88
179
178
107
102
171
185
198
205
220
194
158
125
119
102
84
63
45
39
29
24
21
17
15
13
12
60
84
10
6
8
6
5
6
5
5
7
5
4
4
4
6
8
8
8
11
10
13
18
30
39
51
70
99
132
188
136
104
29
6
4
1
1
2
2
3
2
4
2
3
4
2
4
4
5
6
3
3
0
3
6
13
3
2
3
3
2
2
1
3
1
3
2
2
3
1
2
2
2
3
1
3
4
3
4
1
3
2
6
65
162
46
17
18
15
12
12
8
5
10
6
8
9
14
18
24
38
57
126
190
144
90
141
161
183
189
208
213
182
149
136
126
108
84
64
51
42
30
24
18
17
17
11
52
101
11
8
7
6
4
4
4
6
7
4
5
6
6
5
7
9
9
10
10
11
21
31
43
60
82
107
142
186
112
84
16
3
2
2
4
2
2
4
3
4
4
3
4
3
4
3
5
4
3
2
1
2
4
11
3
1
4
2
2
4
1
4
1
3
4
2
2
1
4
2
1
4
1
4
2
3
3
1
5
3
14
108
140
22
18
18
15
13
13
8
7
8
6
8
9
13
19
28
43
60
94
176
177
98
106
128
161
181
201
215
205
168
151
138
125
106
86
72
57
41
31
24
22
15
13
48
109
12
6
10
9
5
4
2
5
5
4
6
3
8
7
10
11
8
12
13
17
25
37
53
67
91
121
163
177
111
53
11
4
4
1
4
2
3
6
1
3
2
3
5
2
4
2
5
6
2
4
2
4
5
11
3
2
1
1
4
4
1
3
1
3
2
2
4
3
2
3
2
1
1
3
2
3
3
2
4
3
23
143
96
19
22
26
19
15
13
9
8
8
6
6
7
9
15
17
30
48
78
157
199
113
84
104
138
171
194
215
221
200
180
167
155
133
114
93
76
55
39
33
27
23
18
42
118
13
9
10
9
6
7
4
5
5
5
6
5
8
9
8
10
11
13
15
22
34
47
64
77
105
138
189
158
111
32
8
2
4
1
1
2
3
4
3
4
4
4
4
2
4
4
4
5
2
2
1
3
4
7
1
1
3
1
3
1
2
2
0
2
3
2
2
1
3
1
2
3
1
2
1
1
2
2
4
5
37
162
65
29
27
24
21
21
10
9
9
9
4
7
7
8
10
14
20
42
65
131
207
131
66
91
120
144
168
188
205
217
214
204
189
160
136
116
92
70
52
42
34
28
23
38
127
15
11
10
7
6
6
6
5
4
5
7
5
8
8
9
11
11
14
20
30
46
61
71
86
116
150
208
137
93
16
7
2
2
1
2
2
2
3
3
3
3
2
4
4
4
2
4
4
1
3
2
3
2
9
3
2
2
1
4
3
1
3
1
3
2
1
4
0
2
2
2
1
1
3
1
3
4
3
6
6
56
162
60
38
22
32
37
21
14
10
9
8
6
7
5
7
7
13
21
36
59
116
209
143
64
103
109
124
141
159
185
202
216
222
214
182
154
132
110
88
73
53
39
32
28
35
126
20
15
13
7
7
9
8
7
7
6
7
7
10
9
9
12
15
18
26
41
58
69
82
99
129
171
209
112
55
9
5
3
2
1
3
2
1
4
3
4
3
3
4
1
4
3
5
4
1
2
1
3
4
9
2
2
4
1
2
2
2
2
1
2
3
1
1
2
3
1
2
3
1
2
2
3
4
3
7
8
56
152
137
141
62
48
25
20
19
13
8
7
8
5
6
7
8
13
21
37
47
118
205
153
81
119
108
118
142
159
167
187
205
211
216
201
167
140
123
104
92
76
50
36
30
38
118
26
17
13
11
11
9
9
8
7
8
7
8
7
10
12
16
17
23
32
43
62
76
88
109
146
191
182
103
28
7
3
1
2
1
1
2
2
5
3
4
3
3
3
2
4
2
5
5
1
3
1
2
4
10
2
1
4
2
3
4
1
4
1
4
2
1
3
1
2
3
2
3
0
2
2
4
7
6
7
8
60
179
220
225
98
39
30
24
15
12
11
11
6
8
5
9
11
15
22
51
63
124
202
166
112
126
130
157
176
183
193
201
200
197
212
214
182
163
148
126
115
101
77
43
37
45
120
33
19
20
16
12
13
11
10
11
9
9
9
11
14
19
20
27
34
43
55
72
84
101
121
168
223
136
87
12
5
4
2
4
0
1
4
4
4
2
4
2
2
4
3
4
2
6
7
1
3
1
4
5
8
3
1
1
0
3
1
2
2
1
2
3
2
2
1
3
1
2
2
1
4
5
9
9
8
10
11
55
176
211
197
72
41
26
20
18
13
11
10
7
9
8
10
14
30
36
44
68
145
213
171
120
156
186
217
228
233
231
232
222
194
207
220
203
183
168
141
127
119
95
64
44
49
126
35
24
22
17
14
15
13
12
11
11
11
10
14
17
19
26
34
41
53
66
78
93
115
139
207
208
109
58
7
3
3
2
3
1
3
2
3
5
3
4
4
5
4
1
2
4
7
5
2
3
1
3
4
12
2
1
2
1
3
4
1
3
1
4
1
1
3
1
2
3
2
4
3
4
7
10
9
10
8
14
44
156
143
113
39
23
20
16
15
12
10
12
9
10
9
9
12
19
24
32
56
163
211
152
127
185
223
240
245
247
246
243
237
229
223
232
220
198
183
160
140
124
110
83
58
61
128
41
31
26
21
20
17
18
15
14
13
13
14
21
20
26
32
40
48
61
67
90
105
129
158
234
171
98
32
6
2
2
1
1
1
1
2
2
2
3
4
3
2
3
2
3
3
6
3
3
3
1
3
2
10
3
1
3
1
2
2
1
2
1
1
3
2
1
1
2
1
4
3
4
8
9
14
20
25
31
35
56
153
110
43
33
30
22
14
16
9
12
10
9
11
13
11
17
18
24
30
71
188
211
135
151
217
241
247
252
252
252
253
252
250
246
244
230
213
197
174
155
132
121
100
80
72
133
48
40
32
30
25
23
22
22
18
21
19
21
25
30
36
44
51
58
66
80
103
121
148
193
239
124
83
17
4
3
1
1
4
1
4
7
2
3
2
4
2
4
4
3
5
3
5
5
2
2
0
2
5
8
2
1
1
1
3
3
2
3
2
2
2
1
4
1
2
1
2
5
14
51
101
117
121
124
124
122
115
167
162
51
21
16
17
13
13
11
13
12
9
16
16
17
19
22
24
41
98
192
169
124
191
234
239
250
253
252
252
254
254
254
253
253
247
232
214
188
169
143
128
109
96
90
140
58
52
47
43
36
33
34
32
32
30
33
34
41
43
48
56
67
70
78
96
122
145
179
234
206
106
54
10
3
3
2
3
1
1
3
2
2
5
1
3
4
2
3
2
4
5
4
6
3
4
1
3
3
6
3
1
3
1
4
3
3
2
1
3
3
1
3
1
4
3
5
15
86
132
106
92
119
143
168
185
195
220
205
102
28
19
18
16
16
13
17
15
14
21
25
33
27
25
34
57
139
184
126
124
201
221
231
249
253
254
254
254
253
254
255
254
253
249
228
202
183
158
136
117
108
102
146
74
61
56
53
50
44
43
46
43
44
46
48
51
54
60
69
75
85
99
120
136
164
211
245
153
104
30
8
4
3
3
1
5
3
5
5
4
4
1
6
3
3
5
2
3
3
10
5
4
4
1
2
3
7
3
3
3
4
3
5
3
2
1
2
1
2
2
1
5
5
9
67
124
78
100
162
178
180
184
198
230
228
213
176
66
24
20
18
21
21
21
24
24
30
38
41
37
43
50
106
183
154
119
148
211
210
228
249
252
253
254
254
255
254
254
254
254
252
240
219
198
175
157
135
123
118
161
90
75
68
59
59
57
54
53
54
57
56
55
58
64
72
82
92
108
122
137
159
190
235
232
115
88
15
7
1
3
3
2
2
2
4
2
4
4
3
3
3
2
3
2
4
4
5
5
3
2
1
4
4
10
3
3
4
3
4
4
1
3
1
3
3
2
2
1
2
8
21
115
84
50
82
122
158
147
149
157
189
197
156
194
160
47
24
21
24
27
31
36
37
40
43
44
47
71
96
156
162
130
120
169
223
207
216
246
253
253
253
253
254
254
253
252
253
253
249
226
206
194
179
154
135
141
180
112
95
81
71
66
65
64
65
64
64
64
64
68
76
85
96
110
125
138
153
180
221
245
197
101
63
10
5
1
4
2
1
3
3
4
3
3
3
2
3
2
2
2
1
4
4
6
5
2
4
2
4
2
7
2
1
4
2
3
3
1
2
2
3
1
1
3
2
3
6
55
123
56
44
49
56
114
162
162
162
185
208
168
136
197
165
76
42
37
41
44
44
45
42
44
50
59
77
148
154
121
107
93
142
203
219
215
238
246
244
234
246
247
249
249
242
248
253
251
236
214
206
199
183
169
173
190
125
112
103
94
83
83
78
79
78
78
81
83
90
100
113
123
128
139
163
184
213
247
230
106
97
32
7
5
1
3
3
2
4
2
4
3
2
4
3
2
2
2
4
1
3
2
4
6
3
2
1
2
3
9
2
2
2
2
4
4
1
3
1
2
3
2
2
1
4
8
67
119
48
46
56
60
50
89
137
158
158
181
205
163
130
180
180
130
102
88
82
74
68
75
92
115
140
165
175
127
106
80
69
104
147
177
212
227
217
189
183
223
237
245
246
234
235
249
253
250
237
221
211
198
193
209
203
149
132
119
109
98
91
91
95
101
103
105
110
116
122
134
137
146
167
187
212
239
249
159
84
90
17
7
3
1
4
1
1
2
1
3
3
3
4
3
4
2
1
3
1
4
1
5
7
5
4
2
4
2
8
3
2
4
2
4
3
1
3
0
4
3
2
3
1
4
7
64
123
52
50
60
66
49
47
63
114
159
167
170
190
163
149
150
160
173
165
155
137
120
125
154
177
179
159
128
108
89
86
99
126
131
149
194
207
185
173
170
216
222
235
241
229
218
238
250
255
250
239
225
207
203
221
214
172
158
146
131
124
120
117
118
128
129
130
130
133
140
145
155
174
195
214
235
249
225
107
97
62
13
9
5
1
2
2
1
3
1
3
3
3
4
1
4
2
4
3
1
3
1
6
5
5
3
1
2
3
7
4
2
4
2
5
4
2
3
1
2
2
1
2
1
4
8
51
128
57
42
59
58
50
46
45
50
76
129
173
163
170
183
167
114
110
140
159
168
173
171
154
122
104
93
93
96
101
116
133
153
165
196
211
201
182
164
165
214
211
231
240
230
213
229
243
252
253
252
246
230
226
233
224
190
181
170
158
154
153
143
146
155
154
152
151
151
154
165
182
204
219
230
247
244
157
89
106
32
12
8
5
1
3
2
2
5
2
5
4
3
4
3
2
3
3
3
1
3
1
4
6
4
4
2
3
3
9
3
4
5
2
5
4
1
4
2
3
1
1
4
2
5
7
27
133
84
40
54
55
55
50
45
46
49
58
132
179
141
146
160
167
144
114
105
98
102
95
72
56
57
81
109
132
158
156
177
161
166
203
208
187
171
164
169
204
206
221
240
225
207
219
236
244
250
254
253
247
248
248
236
222
213
202
186
179
178
175
176
179
176
175
172
175
188
208
221
230
237
248
244
176
89
101
96
15
11
7
5
1
3
1
3
2
2
4
4
2
4
2
4
1
2
4
1
4
1
7
6
4
5
1
4
4
7
3
2
4
3
6
6
2
4
1
1
3
1
2
1
4
9
13
99
139
66
49
55
59
53
47
48
49
51
79
178
170
120
109
112
144
166
165
135
105
101
94
96
100
130
142
178
213
210
210
169
162
197
199
178
166
170
181
197
193
211
237
218
203
211
225
235
244
253
255
255
255
255
251
246
239
233
226
211
209
205
204
202
199
195
199
218
231
237
232
229
244
241
188
95
85
111
70
9
8
3
3
1
3
3
2
3
3
4
4
1
2
2
3
2
2
2
1
1
1
3
6
3
3
1
3
4
6
2
3
4
4
6
6
4
4
2
3
1
1
3
1
4
4
7
40
142
138
86
66
62
61
60
66
71
82
128
198
222
197
182
149
133
130
130
151
183
189
192
187
194
202
211
226
242
239
227
196
182
195
207
185
178
180
185
186
170
186
225
210
196
198
208
231
245
253
255
255
255
254
252
253
251
250
249
243
241
239
238
240
237
238
242
247
245
239
233
239
234
174
94
74
94
113
45
9
5
3
2
1
3
2
1
2
2
2
2
2
3
2
2
2
2
3
1
1
1
3
7
5
2
1
1
2
5
3
1
2
1
3
6
1
2
1
1
2
1
2
1
3
5
7
9
62
147
165
146
141
137
140
145
153
166
202
229
222
228
233
227
220
204
198
191
199
208
210
211
204
199
205
210
212
221
228
226
220
203
219
196
198
187
182
166
141
163
211
197
194
194
207
237
248
253
254
255
255
255
255
255
255
253
254
252
253
252
252
251
251
250
251
250
248
245
242
231
173
92
72
79
100
105
25
8
8
1
3
0
3
3
3
4
2
4
3
3
3
1
3
2
2
2
1
3
2
4
5
2
3
1
4
5
5
2
1
3
3
6
5
4
3
1
3
2
1
3
1
3
4
4
7
7
19
54
88
123
150
171
187
205
213
215
209
201
196
206
212
218
220
216
216
214
208
202
205
200
208
228
207
176
152
153
196
232
230
227
217
202
188
176
135
119
159
208
211
214
230
248
253
254
255
255
255
255
255
255
253
253
251
251
250
249
250
250
250
248
247
243
240
230
225
213
146
83
65
68
77
115
74
12
9
4
3
3
2
1
3
2
4
2
3
5
2
4
1
3
2
2
2
2
4
1
2
6
5
3
1
4
2
6
2
1
3
1
5
4
5
4
1
3
4
1
3
1
3
1
5
4
4
6
5
12
18
32
76
156
193
193
196
194
193
199
199
205
207
197
193
195
192
193
183
178
171
167
184
198
202
175
143
135
174
219
231
226
208
185
166
112
109
162
214
229
239
249
253
255
255
255
255
255
255
255
255
253
250
243
239
238
238
236
239
241
241
236
219
209
198
168
128
82
70
63
72
88
118
47
8
7
6
2
4
1
3
3
2
4
2
4
2
3
5
3
3
3
3
4
1
3
2
4
6
2
4
1
4
4
5
3
3
4
1
3
4
5
5
2
4
3
2
2
2
2
3
4
4
1
4
4
7
14
35
133
186
186
175
171
171
159
154
153
169
159
137
132
139
144
146
144
153
158
155
150
135
147
168
172
148
134
165
218
228
209
181
163
97
94
154
210
228
246
253
255
255
255
255
255
255
255
254
254
253
245
221
202
191
189
183
183
186
185
177
163
146
119
95
79
68
65
63
78
100
107
23
7
7
3
1
4
2
2
4
2
3
1
3
3
4
3
1
2
1
1
1
1
3
1
3
3
4
3
1
3
4
5
1
2
4
2
4
4
4
5
2
2
2
1
2
1
2
3
4
2
1
3
4
5
20
115
179
168
150
137
137
134
122
115
120
138
127
103
99
102
113
113
104
112
129
134
130
129
124
125
137
156
158
129
153
206
207
179
152
78
76
150
207
228
245
254
254
255
255
255
255
255
254
253
254
251
243
218
199
188
182
171
166
167
156
137
123
112
91
74
66
60
59
65
85
114
84
13
6
5
4
1
2
2
3
2
3
2
2
4
3
3
5
1
3
2
3
3
1
3
1
2
1
2
4
1
3
1
7
3
1
5
1
4
2
4
5
1
2
3
2
4
4
7
7
2
5
2
4
5
14
88
167
152
133
120
120
120
120
117
107
113
128
117
100
99
95
112
108
92
92
103
106
109
117
124
126
125
124
144
164
136
130
163
165
139
66
65
135
198
224
241
251
253
254
254
255
255
255
252
252
250
247
239
228
220
214
205
197
210
190
168
143
113
99
82
68
63
58
58
71
94
119
48
10
5
4
2
1
2
1
1
3
3
4
1
4
5
2
3
1
3
1
2
2
2
1
1
3
3
1
3
1
2
4
7
3
2
2
1
3
5
4
5
3
4
2
2
1
2
5
4
2
4
2
5
9
43
158
147
126
112
121
113
124
126
116
104
107
118
107
101
94
98
112
100
93
97
99
93
92
91
102
115
124
121
121
140
162
133
107
116
105
56
59
117
183
214
224
232
243
251
253
254
255
255
252
251
248
233
235
231
224
219
214
221
220
179
163
139
112
93
79
66
61
58
60
73
99
109
21
7
3
3
3
2
3
0
3
3
2
4
1
4
3
1
3
1
2
1
1
3
1
3
1
2
2
3
3
1
3
2
6
3
2
4
1
3
3
2
5
3
3
4
2
3
1
6
3
2
4
3
6
15
109
158
125
116
113
113
115
125
130
120
103
107
116
102
99
96
103
108
97
96
97
102
98
89
86
87
96
115
133
125
118
131
159
144
97
64
43
51
95
159
205
217
216
223
244
249
253
255
255
252
250
238
219
216
220
227
227
227
234
213
180
163
140
106
91
76
67
63
61
60
76
104
92
11
9
3
3
3
1
4
1
3
4
3
4
1
5
5
2
4
1
5
2
2
3
1
3
2
3
2
2
4
1
4
5
8
3
1
3
1
2
3
4
4
2
2
2
2
2
2
6
2
1
2
2
8
35
156
130
122
110
119
111
116
127
128
113
100
108
121
102
93
98
107
102
94
93
95
101
95
89
86
83
84
91
128
135
131
124
139
167
147
90
47
45
70
139
190
212
207
207
239
248
249
249
250
249
245
228
204
199
196
201
203
209
225
215
172
137
115
97
85
73
65
63
59
64
81
108
70
9
6
1
4
3
1
3
1
3
1
1
5
4
2
4
2
2
1
2
1
2
2
1
1
1
2
3
1
6
5
7
7
12
2
1
2
1
2
4
2
4
2
3
2
2
4
3
2
2
2
3
3
8
88
161
117
116
116
132
121
122
136
130
111
103
113
131
97
89
104
119
99
88
91
99
105
100
96
86
79
81
87
103
112
132
142
125
127
155
169
104
52
47
108
167
201
201
199
237
241
243
246
244
242
241
231
219
213
199
176
162
162
172
162
137
123
107
90
77
66
64
60
64
72
89
118
43
10
5
1
5
3
1
2
1
3
3
1
2
2
4
3
2
4
2
2
1
2
3
1
3
1
3
3
2
2
8
8
9
12
3
1
2
1
3
3
4
4
1
2
2
1
1
2
3
2
2
3
3
14
121
144
121
109
132
128
125
126
142
127
113
106
124
133
95
84
117
124
93
88
93
105
116
105
100
86
81
81
89
102
98
105
127
136
119
128
154
166
104
45
85
146
177
186
198
231
235
241
245
243
234
231
220
207
204
202
200
181
170
158
158
148
134
114
94
77
67
63
63
70
82
102
120
33
10
5
1
1
2
0
2
1
3
3
3
4
2
3
4
1
3
1
3
2
2
2
1
1
1
2
2
1
5
9
12
9
13
2
1
3
1
2
2
4
3
2
3
1
3
2
1
2
1
1
2
5
21
145
134
114
110
133
121
125
139
137
123
114
107
135
122
89
90
122
119
84
97
109
115
124
109
98
85
77
86
101
106
101
97
105
130
121
113
131
155
157
76
59
124
151
180
197
219
221
227
230
243
237
223
209
203
208
203
199
188
190
193
200
180
149
126
107
81
69
64
66
75
91
109
121
27
7
4
1
3
2
2
2
3
2
4
3
2
2
3
3
2
4
1
2
1
2
3
2
3
1
2
3
2
4
9
11
11
14
3
2
4
2
4
3
4
4
3
2
3
1
4
1
4
3
2
3
6
37
157
128
106
112
125
117
128
151
131
117
114
119
133
114
89
97
125
111
85
116
119
122
120
111
99
84
84
107
113
112
103
95
91
111
128
112
110
130
166
136
60
106
133
176
196
214
219
223
224
234
239
234
215
204
214
212
198
194
199
212
215
186
153
131
115
96
75
66
67
78
100
119
117
18
5
3
2
4
2
1
5
1
4
3
2
4
2
3
3
2
3
1
4
2
5
3
2
3
1
3
4
2
2
7
11
14
16
3
1
2
0
4
4
4
3
2
3
2
1
2
1
2
1
2
4
12
84
153
119
105
121
118
117
141
148
123
119
118
126
125
109
93
107
124
104
94
125
117
118
117
110
97
84
97
124
115
110
102
92
91
103
134
122
105
118
136
176
108
81
122
162
176
200
217
217
223
226
229
224
218
202
209
218
217
206
208
218
203
173
161
137
120
101
87
72
68
82
102
125
107
13
7
4
2
1
2
1
3
3
4
4
3
4
3
4
2
1
2
2
3
4
3
2
2
3
1
2
1
1
5
7
11
12
14
2
1
3
1
2
3
2
2
1
4
3
2
3
1
3
3
3
6
40
146
142
109
105
125
119
122
151
141
120
122
126
128
110
107
99
119
120
101
100
125
111
118
116
105
96
88
112
117
111
109
99
90
92
107
127
129
107
107
124
163
171
86
91
136
156
185
207
205
210
231
227
219
201
183
184
183
197
204
205
215
215
176
166
152
128
102
93
83
74
86
102
130
91
13
4
4
1
3
2
1
3
2
4
3
2
3
2
2
3
3
3
1
3
3
4
4
1
3
2
1
3
1
4
9
13
12
15
3
2
3
1
3
3
1
3
1
3
3
2
2
1
4
4
3
16
123
160
118
108
110
129
118
133
149
136
117
129
131
122
102
105
103
130
112
98
106
127
108
117
114
106
90
94
120
108
109
106
101
88
95
111
116
129
112
105
117
133
180
136
94
128
155
180
182
190
203
221
224
213
194
172
167
164
180
197
205
217
227
197
158
144
126
111
99
86
77
87
104
130
79
11
4
2
1
2
2
1
3
1
4
4
2
3
1
4
4
3
2
4
4
5
3
2
1
2
1
3
3
1
4
6
12
11
13
2
1
2
1
3
1
1
2
2
2
1
1
3
0
4
3
8
51
158
130
107
106
119
127
117
142
150
132
115
129
129
117
96
108
116
130
103
97
106
125
108
112
115
101
87
98
122
102
107
104
98
83
95
117
110
125
119
95
108
131
156
184
110
130
143
168
174
174
194
207
210
209
188
171
165
165
172
199
203
197
186
154
125
116
101
95
88
78
76
91
111
134
69
8
3
3
2
3
4
2
2
3
3
4
2
4
3
3
4
3
4
1
2
5
3
3
1
3
2
3
1
1
4
7
8
12
13
4
1
3
0
3
4
2
4
1
3
3
2
3
2
5
6
7
86
145
105
111
111
136
128
124
147
148
128
123
131
132
114
101
104
125
116
106
94
105
118
103
109
123
101
82
109
115
98
105
102
94
87
110
121
105
119
119
103
101
124
146
191
163
133
137
150
168
176
174
154
178
192
203
199
182
169
166
193
190
187
160
120
103
92
81
75
72
68
67
90
108
137
62
9
4
3
1
3
4
2
6
2
3
3
2
3
2
3
4
2
3
4
6
4
3
3
0
3
1
3
3
2
5
5
11
10
14
3
1
3
1
4
5
4
4
1
2
1
1
3
2
4
5
8
102
147
104
117
115
143
127
126
148
146
128
127
133
135
116
106
110
135
115
110
103
112
114
104
111
129
103
82
119
111
101
103
102
94
93
124
119
104
112
119
115
104
114
143
167
191
145
140
129
148
154
141
151
201
219
214
197
196
181
168
186
183
195
197
129
97
85
71
64
58
56
62
86
108
134
55
10
4
3
2
3
3
3
5
3
4
5
3
4
4
4
4
4
4
2
5
4
3
2
1
3
1
2
3
2
3
6
10
11
12
3
1
2
2
4
5
4
7
3
3
2
2
2
1
3
4
9
100
154
111
120
123
146
128
131
146
142
127
129
146
144
126
122
124
135
117
124
116
124
119
100
115
132
118
102
125
114
107
106
107
96
103
132
113
101
108
121
117
115
111
136
162
190
164
141
113
132
141
151
164
197
209
203
202
195
185
189
189
192
195
204
177
126
89
69
58
54
51
61
85
105
131
50
9
4
3
1
4
2
2
3
2
3
3
3
4
2
3
3
1
5
3
4
4
3
3
1
3
1
3
3
2
4
8
10
11
14
2
1
3
1
4
3
5
4
3
5
3
1
3
1
5
7
8
60
158
134
123
130
153
137
134
146
133
131
141
159
146
129
128
136
140
126
140
136
132
123
114
123
141
136
124
135
126
122
118
122
114
117
138
113
106
113
129
125
110
106
121
167
186
183
136
92
114
143
150
157
202
213
198
189
190
193
190
200
193
178
184
180
143
115
91
67
56
54
59
83
102
128
50
9
4
4
1
1
2
4
2
2
3
4
2
3
2
4
3
2
4
1
4
3
3
4
1
2
2
3
3
2
4
6
11
9
13
2
2
3
4
4
5
3
2
3
5
4
1
2
0
2
4
5
14
85
155
135
142
156
150
152
148
133
138
159
167
158
135
135
147
143
128
146
150
139
133
123
133
147
140
136
147
141
135
142
140
130
130
147
123
124
129
139
134
113
117
130
177
180
200
138
74
104
130
145
163
192
207
200
183
177
167
155
161
168
175
179
201
178
136
105
86
65
57
61
83
102
127
56
10
2
3
1
1
3
3
6
2
3
5
2
3
2
2
3
5
3
2
3
4
4
2
1
3
1
1
2
1
1
8
8
12
13
3
1
4
4
6
5
5
5
1
5
4
1
3
1
4
5
7
9
19
89
158
159
163
155
162
157
147
150
169
173
168
157
156
149
143
141
155
159
147
145
137
147
156
149
146
157
160
160
163
158
149
145
158
153
149
148
141
133
120
139
157
176
166
205
140
58
89
108
150
167
204
214
203
190
172
162
147
147
146
161
180
201
196
172
130
104
81
64
68
84
103
129
62
10
4
3
1
3
2
2
4
1
3
3
2
4
1
4
4
2
4
3
3
4
4
3
1
2
1
3
3
1
5
6
11
13
11
2
4
5
5
4
5
5
5
3
5
5
1
3
1
3
3
4
7
11
14
66
145
178
162
153
155
158
158
150
153
167
159
146
147
152
152
154
154
163
159
156
166
173
165
160
168
171
164
161
154
149
153
158
162
150
142
138
123
111
126
136
149
159
203
138
53
68
108
142
164
190
207
212
202
192
177
161
145
140
157
164
160
139
123
100
92
84
71
68
83
99
125
71
12
5
4
2
2
3
1
4
2
3
2
5
4
4
4
4
5
5
2
4
4
2
4
1
3
2
3
3
1
3
7
14
15
12
3
3
5
2
7
4
4
6
4
5
7
2
4
1
3
2
3
7
9
9
10
34
108
155
172
170
165
159
144
136
145
137
126
130
151
146
133
143
161
169
172
189
195
191
190
191
187
168
153
139
125
118
118
119
117
104
107
98
101
100
104
125
160
199
132
49
59
109
136
150
177
198
211
208
194
180
168
132
123
145
165
157
136
102
79
68
67
62
62
81
97
123
83
10
8
5
1
4
3
2
2
4
5
5
3
4
1
4
4
2
4
3
5
6
3
3
2
3
2
3
3
1
4
7
11
11
12
2
3
4
3
5
5
3
5
4
4
7
6
3
1
3
2
3
3
4
6
8
7
8
18
47
87
122
145
154
164
174
175
178
181
191
190
196
193
198
197
186
184
176
164
164
156
146
145
150
144
151
143
131
126
140
139
148
158
152
122
97
120
173
195
118
44
48
82
119
150
180
189
190
190
191
194
174
154
136
159
183
200
201
146
80
62
59
59
57
74
90
117
90
12
5
2
1
4
3
3
3
0
3
3
3
4
4
4
3
2
4
3
4
3
3
4
2
4
1
2
2
3
5
8
10
12
14
2
1
2
4
4
3
3
4
4
4
6
5
4
2
2
1
2
3
1
4
4
4
7
7
9
9
12
17
23
33
42
50
54
67
79
139
154
155
170
175
166
169
166
161
162
164
156
148
155
157
164
158
157
149
149
156
147
146
155
137
97
133
182
178
104
38
44
70
114
147
156
179
197
212
211
196
186
182
168
176
179
184
195
174
115
77
60
57
56
67
80
108
96
11
6
4
1
2
2
1
3
3
2
3
2
2
2
3
4
3
4
1
4
5
2
2
1
2
2
2
3
2
5
8
13
12
16
3
1
4
3
2
4
5
5
4
5
8
6
6
3
3
2
1
2
1
3
3
3
7
6
9
9
8
9
6
6
7
7
11
10
40
146
132
136
162
163
152
157
156
143
142
148
157
140
139
158
151
142
151
148
135
143
131
127
138
135
110
165
180
162
87
35
39
60
112
136
162
195
214
212
202
191
191
183
174
167
173
175
178
176
144
105
80
58
58
64
77
95
98
15
6
4
1
2
3
1
4
1
3
2
3
4
2
3
4
2
4
1
4
4
3
3
1
2
1
3
2
1
4
6
14
13
15
2
1
3
4
5
5
3
6
5
5
5
5
4
4
3
2
2
3
1
2
1
3
4
3
4
4
5
5
2
2
2
5
5
5
31
141
141
124
155
162
139
137
142
131
129
131
150
134
119
136
137
127
132
144
123
135
128
123
133
139
139
176
176
135
69
31
33
44
108
146
169
196
210
213
198
183
182
179
172
171
177
176
170
179
165
129
103
71
58
62
74
87
95
23
9
5
3
2
2
1
4
3
5
3
5
4
4
3
4
3
3
2
4
2
4
2
1
4
1
2
2
1
4
7
13
12
12
4
2
3
5
5
5
6
6
5
4
6
3
4
5
6
4
2
4
1
3
1
2
3
2
4
1
3
3
2
4
1
3
4
3
13
88
162
129
141
160
146
124
136
132
127
119
143
135
108
121
129
121
126
143
110
119
133
123
137
149
157
159
170
103
48
27
29
31
97
155
163
182
208
216
201
188
180
176
153
150
144
142
164
181
181
155
114
84
63
61
68
82
96
39
9
8
4
3
2
1
6
3
4
4
2
4
2
4
3
5
5
3
4
3
3
4
1
4
1
2
2
1
4
7
11
14
14
4
3
7
3
7
5
4
5
4
4
4
2
5
5
5
4
4
5
3
3
1
2
4
1
3
1
3
4
1
3
2
2
3
3
7
24
120
151
139
157
155
128
132
138
130
112
134
138
114
104
125
111
113
139
108
103
129
127
154
161
146
151
136
80
36
24
22
30
79
138
163
172
196
211
203
195
182
169
142
121
115
107
117
131
129
121
98
75
61
56
60
74
92
56
11
9
4
5
4
4
4
4
4
5
3
5
4
4
4
2
3
4
4
2
3
3
2
2
1
3
2
3
4
8
9
13
15
2
3
2
6
5
5
4
2
2
3
4
1
2
1
4
5
4
5
3
2
1
3
2
1
2
1
2
1
1
2
2
1
1
2
4
5
23
88
150
143
153
145
132
142
142
118
122
137
134
98
114
116
97
133
118
97
121
147
162
143
132
151
89
47
24
19
20
27
53
121
143
147
176
197
201
194
185
155
125
105
98
98
117
141
127
103
79
65
52
45
50
59
81
83
21
9
7
6
4
4
3
2
3
2
3
4
3
3
3
2
4
2
5
2
2
2
1
3
1
4
3
3
4
7
9
12
12
4
3
5
2
4
2
1
3
1
1
2
1
3
1
4
4
2
5
3
2
1
2
2
0
2
1
3
4
1
4
3
3
3
1
3
3
8
14
86
152
136
152
149
145
143
130
111
124
137
107
103
122
94
116
127
100
135
166
141
122
147
112
48
24
18
15
16
23
36
94
132
148
171
196
198
192
168
129
123
115
105
100
128
163
170
130
91
64
50
45
43
47
68
87
46
13
8
7
6
4
3
1
1
2
1
4
2
3
3
3
5
1
3
3
2
4
1
2
2
2
3
1
3
6
8
11
14
2
4
3
5
3
4
1
1
1
3
3
2
3
1
2
2
3
4
1
3
2
3
3
2
3
1
2
2
2
3
3
3
2
1
2
3
4
5
10
88
133
130
147
145
134
140
120
106
126
117
93
120
101
98
128
132
155
136
118
143
136
47
18
11
5
4
6
14
25
58
112
149
169
173
173
170
164
142
137
130
125
119
142
172
185
171
125
73
52
40
35
34
43
71
75
19
9
9
5
4
4
1
3
3
2
2
1
2
4
3
4
4
3
3
2
1
1
2
1
2
1
1
2
2
7
10
12
5
3
6
2
5
4
2
4
1
2
3
2
3
1
3
2
2
3
0
3
1
2
4
1
4
1
3
3
1
4
1
3
3
1
3
1
4
5
5
19
100
130
133
139
136
133
132
112
116
126
101
111
117
108
148
156
121
116
140
149
71
26
13
5
4
5
6
8
21
41
96
144
160
162
169
172
173
154
140
136
138
140
154
166
178
177
146
109
72
39
38
31
35
45
84
40
11
7
7
3
4
1
1
1
1
5
3
6
4
2
4
3
3
2
2
4
1
4
2
2
3
1
4
1
6
8
11
1
2
4
4
3
3
1
4
1
3
3
2
5
3
4
2
2
2
1
3
2
2
2
1
2
2
3
2
1
2
1
2
2
2
2
2
3
3
3
6
26
122
134
122
122
123
138
131
127
138
127
125
138
139
143
117
104
141
153
91
33
13
6
3
2
2
4
6
20
34
77
133
155
158
179
182
170
146
129
133
135
142
154
162
171
179
167
129
99
66
40
25
25
31
63
64
17
11
6
4
4
1
4
3
1
4
3
3
3
5
6
1
3
1
3
3
2
3
3
3
3
2
3
2
5
7
10
1
1
4
4
4
2
1
3
1
4
2
3
3
1
4
2
1
4
1
2
2
3
1
1
3
1
3
2
1
2
1
2
2
2
4
1
3
2
3
4
3
42
113
136
127
113
115
121
120
134
139
135
133
119
103
118
143
140
87
38
13
7
2
2
2
2
3
8
19
35
64
116
154
159
177
180
167
137
122
122
130
136
145
153
154
173
179
151
124
85
49
24
20
21
26
52
29
11
8
4
3
1
2
2
2
3
3
5
5
3
2
3
3
1
3
2
1
3
3
3
2
1
4
2
5
7
11
3
2
4
1
4
3
1
2
1
3
1
1
3
1
1
1
2
2
1
3
1
2
4
2
2
1
2
3
1
4
2
3
2
1
1
1
2
1
2
4
3
4
19
72
131
145
128
120
113
107
104
101
102
116
139
156
123
62
32
17
9
5
1
2
2
3
8
14
32
36
57
98
144
160
172
172
160
136
117
107
113
114
119
122
123
129
142
145
127
91
46
21
20
17
15
19
20
11
8
5
3
2
3
3
1
2
3
4
5
2
4
2
3
2
2
3
4
3
2
1
3
1
2
1
4
6
10
1
3
2
4
5
3
4
3
1
2
2
3
3
2
3
2
2
3
1
2
2
3
2
2
3
1
3
1
1
4
2
1
3
2
4
2
3
2
1
2
3
3
2
6
32
99
142
156
151
151
144
148
162
175
147
82
42
29
18
9
4
2
1
3
3
4
9
31
53
46
60
97
133
157
168
161
151
127
105
90
85
89
96
98
106
119
117
115
104
69
36
19
17
14
10
9
10
11
7
6
3
3
2
2
1
3
3
3
5
4
4
1
4
2
2
4
1
2
4
3
2
1
2
1
5
7
9
4
2
4
2
6
5
4
4
2
3
2
2
3
1
4
2
2
3
1
3
1
1
3
1
2
1
3
4
3
3
1
4
3
2
3
1
3
2
2
3
1
3
4
3
6
12
41
83
128
169
178
176
166
123
64
37
27
19
11
6
3
4
1
2
2
6
17
42
65
78
86
103
128
157
158
157
144
115
89
71
67
83
85
96
103
131
141
115
92
57
30
17
15
11
9
9
6
9
8
6
4
1
4
4
2
4
2
5
4
3
4
1
3
2
3
4
1
5
5
5
4
1
3
1
5
6
10
2
1
5
4
4
6
3
5
2
3
3
1
3
1
3
2
1
2
2
2
3
2
2
1
3
2
3
3
1
3
1
2
2
1
2
1
2
2
2
3
1
2
2
2
2
3
5
14
44
125
129
117
104
80
51
31
20
12
4
3
2
3
1
3
4
6
18
48
72
84
98
105
126
148
153
143
129
100
72
54
50
63
81
92
103
126
152
135
103
65
29
16
12
11
9
8
6
5
7
2
4
2
3
1
1
3
1
4
4
2
3
3
5
2
2
3
2
4
2
5
3
1
3
1
4
5
9
3
4
4
2
6
4
4
5
3
4
3
2
4
1
3
2
1
3
1
4
1
2
4
1
2
2
1
2
1
3
2
4
2
0
2
1
2
1
2
3
1
3
2
2
2
2
4
4
19
115
124
108
91
71
47
25
15
6
4
3
2
3
1
1
2
6
19
49
72
84
96
112
129
144
143
135
122
92
58
43
37
39
58
79
93
110
131
131
113
81
47
17
13
10
6
6
3
3
3
1
4
1
2
3
2
3
1
6
3
3
5
4
3
4
3
4
5
3
4
5
4
2
2
1
4
7
9
3
1
4
3
3
5
4
6
5
3
1
1
2
1
2
3
2
2
1
1
2
2
3
2
4
5
7
4
1
1
1
3
3
3
5
3
3
4
2
2
1
2
1
2
4
1
4
4
11
105
125
108
89
61
37
20
13
5
1
3
2
2
2
3
2
5
14
45
73
88
95
113
124
132
131
123
112
82
50
35
28
26
31
55
79
98
108
114
111
92
64
25
11
10
7
5
5
3
3
1
2
1
3
1
1
4
4
2
3
2
4
3
5
3
3
5
4
4
5
5
5
1
3
1
4
5
10
2
4
4
3
4
3
3
3
4
3
2
1
2
1
3
1
2
2
1
4
1
2
1
1
3
4
4
4
1
3
1
1
2
3
3
2
3
3
1
3
2
3
2
2
2
1
3
3
6
95
126
102
77
45
26
16
8
2
3
2
2
2
1
3
3
5
13
38
70
87
94
107
115
122
119
113
100
68
37
23
15
16
19
27
46
73
95
103
106
97
74
35
14
9
7
5
4
1
3
1
2
1
3
2
3
2
3
3
5
3
4
4
3
3
4
4
5
5
5
5
3
1
3
1
2
8
9
3
2
4
3
5
5
6
4
4
6
2
1
3
1
1
3
3
4
1
2
2
3
3
1
3
2
6
6
1
3
1
4
3
1
4
1
2
2
1
3
1
4
2
3
3
1
4
1
8
80
125
97
62
34
21
14
5
1
2
3
1
3
1
3
3
5
9
25
57
85
93
103
109
112
109
100
84
47
26
13
9
7
7
12
14
28
44
62
78
86
68
34
15
9
6
6
3
3
2
1
4
1
3
3
2
3
1
6
4
4
4
2
4
5
3
5
4
4
5
5
6
1
2
1
6
8
13
5
4
5
4
4
5
5
4
4
3
3
2
2
1
3
2
2
2
1
3
3
3
2
1
2
3
4
4
3
4
1
3
3
2
3
1
3
2
1
3
2
3
4
3
4
2
3
2
8
60
121
89
50
28
16
11
3
1
4
2
1
3
1
3
2
3
7
14
35
65
82
93
97
99
94
84
62
27
13
6
4
4
2
5
5
6
9
18
29
36
30
17
9
8
3
3
1
1
3
2
3
2
3
2
1
3
4
3
5
2
4
4
3
3
4
4
3
5
3
5
2
1
3
1
5
7
12
3
1
5
3
4
5
2
3
2
2
2
1
4
1
2
2
3
3
1
4
2
3
4
1
3
1
4
4
1
4
1
4
2
1
3
1
4
3
2
4
1
4
3
3
5
2
2
2
7
43
115
83
38
20
14
6
6
1
5
3
2
4
1
3
2
3
5
7
15
34
53
69
77
76
64
51
30
13
9
2
3
4
2
3
1
3
5
8
9
10
8
6
7
5
3
3
1
3
2
1
4
1
2
3
2
4
2
2
4
2
4
2
4
2
3
4
4
4
3
2
3
1
3
1
6
7
11
2
4
5
3
6
4
3
3
1
4
3
1
3
1
3
2
2
2
2
2
1
2
3
2
1
1
2
2
1
3
1
2
3
1
3
1
2
2
1
2
2
3
1
3
4
1
3
3
6
28
104
79
32
18
12
3
3
1
3
1
2
1
1
2
2
2
4
2
10
14
19
28
33
29
23
16
13
9
6
3
3
2
1
3
1
3
4
4
5
4
4
4
2
4
2
2
1
2
3
1
1
1
3
4
2
4
6
4
4
4
5
3
4
6
5
5
1
3
3
1
2
2
4
1
7
6
12
4
3
4
2
2
3
5
2
1
3
2
1
2
1
2
1
2
3
1
1
1
3
2
1
3
1
4
2
2
2
1
3
2
1
2
1
4
2
1
3
1
2
3
2
2
2
2
1
6
15
92
74
28
19
9
2
3
1
2
3
1
2
1
3
2
3
2
3
4
5
9
10
9
9
8
6
5
3
2
1
1
1
3
3
1
4
1
3
4
3
3
2
3
3
1
3
1
3
2
2
3
1
1
1
2
4
3
4
6
4
4
2
4
5
3
4
2
4
1
3
3
1
2
3
6
8
10
1
2
4
1
4
4
2
4
1
3
3
1
3
1
3
2
1
2
1
3
1
2
3
1
2
1
1
1
2
4
1
2
3
2
2
1
2
2
2
1
2
3
2
2
4
2
3
1
5
12
74
73
24
16
9
2
2
1
4
3
1
3
2
1
1
2
4
1
4
1
3
4
4
5
2
3
3
1
3
2
3
3
2
3
1
1
2
2
3
1
3
2
2
2
1
3
0
3
3
2
3
1
3
3
1
3
2
4
5
4
4
2
3
1
2
3
3
2
1
1
2
2
4
3
8
7
9
3
4
3
2
4
5
2
4
1
4
2
2
2
1
2
2
2
3
2
2
2
2
2
1
3
1
3
4
1
2
1
3
2
1
3
1
3
1
2
3
1
3
6
4
4
1
2
2
5
8
60
70
22
15
9
2
3
0
2
3
1
2
2
3
1
4
2
1
3
2
2
2
1
2
2
3
2
2
2
1
2
1
1
1
1
3
2
2
2
1
2
1
3
3
2
1
1
2
6
3
3
1
3
1
2
4
3
3
5
2
3
3
2
4
5
3
2
4
1
3
4
1
2
3
8
11
14
3
1
5
2
4
5
2
5
2
3
2
1
3
1
4
2
1
3
1
3
1
3
4
1
1
1
3
4
2
4
1
4
4
2
3
1
2
1
3
4
1
5
5
5
3
1
5
2
5
9
42
67
21
15
8
2
4
1
4
1
1
4
1
3
2
2
4
1
4
1
3
3
1
3
1
3
3
1
2
1
4
4
2
4
1
4
2
2
3
2
4
2
3
4
1
2
1
3
5
3
4
1
3
3
2
5
1
4
3
2
3
2
3
2
3
4
1
3
1
3
4
1
4
4
10
10
11
2
2
3
2
3
4
3
4
1
2
3
2
3
1
2
2
2
2
1
2
1
2
2
1
4
1
3
1
2
2
1
1
1
1
2
1
4
3
2
4
2
4
5
3
3
1
1
1
4
6
23
56
23
11
7
2
3
1
4
2
2
4
1
4
3
2
2
1
2
1
1
2
1
2
0
3
3
2
4
1
3
4
2
4
3
3
2
1
1
1
1
1
1
1
2
4
4
4
4
5
4
1
3
3
2
4
4
4
4
3
5
2
3
6
2
3
1
2
1
1
1
1
5
3
11
12
15
1
2
2
3
3
3
5
1
1
3
1
2
3
1
3
1
1
3
1
3
1
1
3
1
2
1
2
3
1
3
1
2
1
1
2
0
2
2
2
3
2
4
4
5
3
1
3
1
2
4
12
36
21
13
8
1
3
1
3
3
1
2
1
2
2
2
3
1
3
2
3
3
1
3
1
1
2
1
4
1
3
3
2
4
1
2
1
3
3
1
3
1
1
3
1
4
2
3
5
1
2
1
2
2
3
3
2
2
1
4
4
3
4
2
1
1
1
3
1
2
2
1
4
9
10
13
16
3
1
3
2
4
3
2
2
1
2
3
1
2
1
2
3
2
2
1
1
2
2
2
1
3
1
3
2
0
2
2
2
3
1
3
1
3
3
2
2
2
4
3
5
4
1
2
1
3
3
9
23
17
11
9
2
4
1
3
3
3
2
1
3
1
1
2
1
1
1
2
2
1
2
0
3
3
1
2
1
2
2
1
1
1
3
2
2
2
2
1
1
3
2
1
3
1
5
5
1
3
1
3
3
1
3
1
4
5
2
2
1
1
1
3
3
2
2
2
3
3
3
7
8
14
13
17
2
1
3
3
4
4
2
3
0
3
1
2
3
1
4
1
2
2
0
4
1
2
3
1
2
1
2
2
1
3
1
3
2
2
2
2
2
2
2
3
3
3
3
4
4
1
4
1
2
4
7
14
14
9
6
2
3
1
2
2
1
3
1
2
2
2
3
1
3
1
3
3
1
3
1
2
2
2
3
1
3
2
3
3
1
3
1
3
3
1
2
1
2
4
1
3
1
4
3
2
3
1
3
3
1
4
3
2
1
2
3
2
3
2
2
3
1
3
1
2
2
3
8
9
13
15
20
4
2
5
2
4
4
4
3
0
3
3
2
3
1
4
3
2
3
1
4
2
2
2
1
4
1
5
3
1
3
1
4
3
2
4
1
4
3
3
4
1
5
3
5
7
2
3
1
4
3
5
11
12
10
6
2
3
1
4
4
2
4
1
3
2
2
3
2
3
2
3
2
1
3
0
3
3
1
3
1
4
1
2
4
1
4
3
2
4
1
4
1
2
3
1
4
1
3
2
3
3
0
3
3
1
3
2
5
2
2
3
0
4
1
3
3
2
4
1
2
2
5
9
14
17
18
22
